<?xml version="1.0" encoding="iso-8859-1"?>
<!-- Generator: Adobe Illustrator 19.0.0, SVG Export Plug-In . SVG Version: 6.00 Build 0)  -->
<svg version="1.1" id="Layer_1" xmlns="http://www.w3.org/2000/svg" xmlns:xlink="http://www.w3.org/1999/xlink" x="0px" y="0px"
	 viewBox="0 0 471 471" style="enable-background:new 0 0 471 471;" xml:space="preserve">
<g>
	<g>
		<rect x="192.431" y="54.721" style="fill:#E6E6E6;" width="135.615" height="158.747"/>
		<rect x="310.793" y="54.721" style="fill:#F2F2F2;" width="17.253" height="158.747"/>
		<rect x="141.231" y="54.721" style="fill:#CCCCCC;" width="51.2" height="158.747"/>
		<rect x="177.413" y="213.469" style="fill:#E6E6E6;" width="118.867" height="141.411"/>
		<rect x="177.413" y="213.469" style="fill:#CCCCCC;" width="32.38" height="141.411"/>
		<rect x="261.603" y="213.469" style="fill:#F2F2F2;" width="16.19" height="141.411"/>
		<rect x="177.413" y="213.469" style="fill:#CCCCCC;" width="118.867" height="27.031"/>
		<path style="fill:#666666;" d="M328.046,179.653h-87.613c-7.074,0-12.809-5.735-12.809-12.809v0
			c0-7.074,5.735-12.809,12.809-12.809h87.613"/>
		<circle style="fill:#F4516D;" cx="242.995" cy="19.797" r="12.297"/>
	</g>
	<g>
		<path d="M234.797,127.719c4.143,0,7.5-3.358,7.5-7.5v-11.272c0-4.142-3.357-7.5-7.5-7.5s-7.5,3.358-7.5,7.5v11.272
			C227.297,124.361,230.654,127.719,234.797,127.719z"/>
		<path d="M301.403,127.719c4.143,0,7.5-3.358,7.5-7.5v-11.272c0-4.142-3.357-7.5-7.5-7.5s-7.5,3.358-7.5,7.5v11.272
			C293.903,124.361,297.261,127.719,301.403,127.719z"/>
		<path d="M303.78,245.124v-24.155h24.266c4.143,0,7.5-3.358,7.5-7.5V54.721c0-4.142-3.357-7.5-7.5-7.5h-77.551v-9.114
			c7.205-2.962,12.296-10.05,12.296-18.311C262.791,8.881,253.91,0,242.995,0c-10.916,0-19.797,8.881-19.797,19.796
			c0,8.262,5.091,15.349,12.297,18.312v9.113h-43.063h-51.2c-4.143,0-7.5,3.358-7.5,7.5v158.748c0,4.142,3.357,7.5,7.5,7.5h28.682
			v28.123c-1.341,1.322-2.685,2.735-4.02,4.25c-23.733,26.929-26.507,64.235-24.654,90.789c0.275,3.955,3.569,6.979,7.474,6.979
			c0.176,0,0.353-0.006,0.53-0.019c4.132-0.289,7.248-3.872,6.959-8.004c-1.977-28.338,2.763-52.241,13.711-69.978v81.771
			c0,4.142,3.357,7.5,7.5,7.5h22.723c5.596,14.701,21.011,63.182-4.035,96.625c-1.702,2.273-1.975,5.313-0.704,7.852
			s3.867,4.144,6.707,4.144h19.47c4.143,0,7.5-3.358,7.5-7.5s-3.357-7.5-7.5-7.5h-6.074c8.908-17.841,11.626-39.8,7.852-64.369
			c-1.821-11.854-4.793-22.107-7.242-29.251h44.388c5.596,14.701,21.011,63.182-4.035,96.625c-1.702,2.273-1.975,5.313-0.704,7.852
			s3.867,4.144,6.707,4.144h19.47c4.143,0,7.5-3.358,7.5-7.5s-3.357-7.5-7.5-7.5h-6.074c8.908-17.841,11.626-39.8,7.852-64.369
			c-1.821-11.854-4.793-22.107-7.242-29.251h19.811c4.143,0,7.5-3.358,7.5-7.5v-33.11c0-4.142-3.357-7.5-7.5-7.5s-7.5,3.358-7.5,7.5
			v25.61H184.913v-91.625c8.614-7.074,15.931-9.41,16.152-9.479c3.953-1.172,6.221-5.32,5.067-9.285
			c-1.156-3.977-5.319-6.263-9.296-5.106c-0.361,0.105-5.217,1.565-11.924,5.565v-16.481h7.519h96.349v79.8
			c0,4.142,3.357,7.5,7.5,7.5s7.5-3.358,7.5-7.5v-34.02c11.398,14.673,20.681,38.369,18.031,76.338
			c-0.289,4.132,2.827,7.716,6.959,8.004c0.178,0.012,0.354,0.019,0.53,0.019c3.904,0,7.198-3.024,7.474-6.978
			C340.589,289.491,321.61,260.314,303.78,245.124z M242.995,15c2.645,0,4.796,2.152,4.796,4.796c0,2.645-2.151,4.797-4.796,4.797
			s-4.797-2.152-4.797-4.797C238.198,17.152,240.351,15,242.995,15z M270.989,172.153v-10.618h18.815v10.618H270.989z
			 M240.433,172.153c-2.927,0-5.309-2.382-5.309-5.309s2.382-5.309,5.309-5.309h15.557v10.618H240.433z M304.805,161.535h15.741
			v10.618h-15.741V161.535z M199.932,205.969V113.77c0-4.142-3.357-7.5-7.5-7.5s-7.5,3.358-7.5,7.5v92.199h-36.2V62.221h36.2v28.548
			c0,4.142,3.357,7.5,7.5,7.5s7.5-3.358,7.5-7.5V62.221h120.614v84.313h-80.113c-11.198,0-20.309,9.111-20.309,20.309
			s9.11,20.309,20.309,20.309h80.113v18.816H199.932z"/>
	</g>
</g>
<g>
</g>
<g>
</g>
<g>
</g>
<g>
</g>
<g>
</g>
<g>
</g>
<g>
</g>
<g>
</g>
<g>
</g>
<g>
</g>
<g>
</g>
<g>
</g>
<g>
</g>
<g>
</g>
<g>
</g>
</svg>
